<svg xmlns="http://www.w3.org/2000/svg" viewBox="0 0 16 16" aria-hidden="true" role="presentation" focusable="false" style="display: block;
            height: 12px;
            width: 12px;
            fill: rgb(255, 255, 255);">
	<path d="M10.5 14.5v.67a.83.83 0 0 1-.73.82l-.1.01H6.33a.83.83 0 0 1-.82-.73l-.01-.1v-.67h5zM8 0a6 6 0 0 1 6 
        5.78V6c0 2.05-1.17 3.99-3.5 5.8v1.45h-5v-1.44l-.03-.03C3.25 10.04 2.09 8.2 2 6.25L2 6a6 6 0 0 1 6-6zm0 
        3.5A2.5 2.5 0 0 0 5.5 6v5.75H7V5.88A1 1 0 0 1 9 6v5.75h1.5V5.84A2.5 2.5 0 0 0 8 3.5z">
	</path>
</svg>
